<?xml version="1.0" standalone="no"?>
<!DOCTYPE svg PUBLIC "-//W3C//DTD SVG 20010904//EN"
 "http://www.w3.org/TR/2001/REC-SVG-20010904/DTD/svg10.dtd">
<svg version="1.0" xmlns="http://www.w3.org/2000/svg"
 width="70.000000pt" height="70.000000pt" viewBox="0 0 70.000000 70.000000"
 preserveAspectRatio="xMidYMid meet">
<metadata>
Created by potrace 1.16, written by Peter Selinger 2001-2019
</metadata>
<g transform="translate(0.000000,70.000000) scale(0.100000,-0.100000)"
fill="#000000" stroke="none">
<path d="M220 678 c-38 -15 -74 -40 -116 -82 -75 -75 -104 -143 -104 -246 0
-103 29 -171 104 -246 75 -75 143 -104 246 -104 103 0 171 29 246 104 75 75
104 143 104 246 0 103 -29 171 -104 246 -44 44 -77 67 -119 82 -77 29 -181 29
-257 0z m261 -40 c201 -93 248 -356 93 -512 -123 -123 -325 -123 -448 0 -123
123 -123 326 0 447 97 96 234 121 355 65z"/>
<path d="M305 576 c-90 -40 -98 -147 -15 -206 26 -19 30 -19 30 -5 0 10 -13
33 -30 52 -16 18 -30 40 -30 48 0 32 22 67 51 79 40 17 75 10 99 -22 21 -26
27 -72 10 -72 -5 0 -10 7 -10 15 0 8 -7 15 -15 15 -18 0 -19 -11 -3 -62 12
-42 17 -43 83 -18 30 11 29 36 -1 32 -17 -2 -19 3 -16 37 3 33 -1 44 -30 74
-38 41 -80 52 -123 33z"/>
<path d="M380 321 c0 -11 6 -24 14 -28 18 -11 36 -47 36 -73 0 -55 -87 -90
-137 -55 -25 18 -37 59 -24 83 9 15 10 14 11 -5 0 -16 6 -23 18 -23 17 0 18 5
12 45 -4 25 -9 48 -13 51 -11 11 -97 -8 -97 -22 0 -8 8 -14 18 -14 15 0 18 -8
18 -49 -1 -55 18 -85 70 -107 40 -17 91 -4 125 32 18 20 24 37 24 74 0 49 -18
80 -57 101 -14 8 -18 6 -18 -10z"/>
</g>
</svg>
